<?xml version="1.0" encoding="utf-8"?>
<!-- Generator: Adobe Illustrator 21.1.0, SVG Export Plug-In . SVG Version: 6.00 Build 0)  -->
<svg version="1.1" id="_x37C_" xmlns="http://www.w3.org/2000/svg" xmlns:xlink="http://www.w3.org/1999/xlink" x="0px" y="0px"
	 viewBox="0 0 512 512" style="enable-background:new 0 0 512 512;" xml:space="preserve">
<style type="text/css">
	.st0{fill-rule:evenodd;clip-rule:evenodd;fill:#E50012;}
</style>
<path class="st0" d="M267.2,7.6C357,97.4,422.2,163.1,512,252.9c-179.8,67.5-105.1,146.2-262.7,251.6
	c-36.1-36.1-66.7-66.2-99.4-97.8c63.9,6.3,201.1-47,200.8-142.7c-0.1-63.6-64.8-95.6-113.5-52.5c-5,4.4-12.6,13.4-12.6,13.9
	c6.4,0.5,36.1-6.5,37,17.8c1,26.4-29.1,39-54.4,37.7c-15.5-0.8-28.2-7.5-36.1-21.1c-18.1-31.1,1.8-83,57.7-100.1
	c22.9-7,51.2-7.7,74-0.3c19.2,6.3,37.8,20.1,32.4,45.1c-0.2,1.1,19.1-10.8,23.4-28c11.9-47.3-61.2-53.1-91.3-51.4
	c-48.3,2.7-106.8,30.5-124,77.6c-6.6,18.1-6.8,39.7,0.2,57.8c22.2,57.3,108.2,51.5,129,8.3c11.7-24.3-1.5-46.8-29.1-46.7
	c-4.7,0-9.9,0.5-14.5,1.4c8.3-6,11.6-7.8,16.9-9.9c46.6-19.2,87.8,12.7,73.3,63.1c-19.8,69.2-121.3,104.7-209.1,98.8
	c-22.6-1.5-64-8.3-81.8-22.8c-13.8-11.3-10-32.7,4.5-22.7c19.3,13.3,25.8,18.8,52,24.8c73.2,16.9,165.4-7.8,192.1-50
	c-50,45.2-189.1,45-233.9-2.6L0,256.5C152.4,178.6,65.9,100.8,267.2,7.6z"/>
</svg>
